<svg width="330" height="342" viewBox="0 0 330 342" fill="none" xmlns="http://www.w3.org/2000/svg">
<path d="M135.765 241.072C127.423 245.27 117.922 237.44 119.325 227.523L127.649 168.707C128.953 159.489 138.85 155.316 145.819 161.046L187.029 194.932C194.006 200.67 193.063 212.234 185.298 216.142L135.765 241.072Z" fill="#3CACFE"/>
<path d="M125.151 242.265C121.671 244.039 117.703 240.768 118.302 236.621L129.67 157.959C130.225 154.119 134.345 152.381 137.239 154.767L191.874 199.795C194.768 202.18 194.377 206.99 191.155 208.631L125.151 242.265Z" fill="#000D43"/>
<path d="M148.538 160.516C154.307 152.752 162.748 145.326 171.081 139.155C176.69 134.007 183.601 129.352 187.681 120.982C186.7 125.445 185.565 129.638 184.617 131.028C183.887 134.127 185.513 132.65 185.84 133.006C189.447 132.144 206.365 113.335 206.854 107.418C207.102 105.336 207.277 114.95 204.896 121.187C201.173 132.616 195.713 140.06 197.024 137.6C200.485 135.756 203.829 131.427 207.465 126.896C186.11 235.978 92.594 235.796 148.538 160.516Z" fill="#000D43"/>
<path d="M126.628 184.297C142.782 121.927 132.258 197.949 142.782 146.018C142.754 177.406 165.954 171.371 178.516 161.276C164.388 178.153 169.305 215.587 192.222 184.297C190.336 194.946 199.24 203.645 170.929 220.167C142.617 236.688 110.474 246.668 126.628 184.297Z" fill="#3CACFE"/>
<path d="M173.57 148.604C174.011 147.313 174.564 145.019 176.86 142.837C176.394 146.477 180.542 137.03 179.725 139.109C179.38 139.988 178.317 142.569 177.775 145.169C178.125 144.779 178.366 143.851 178.756 143.147C177.233 154.781 173.129 149.895 173.57 148.604Z" fill="#AAFEFF"/>
<path d="M188.757 141.072C189.187 140.063 189.806 138.322 191.511 136.261C190.789 138.931 194.517 131.333 193.758 132.983C193.436 133.681 192.462 135.741 191.814 137.695C192.081 137.341 192.342 136.633 192.671 136.048C190.343 144.588 188.327 142.082 188.757 141.072Z" fill="#3CACFE"/>
<path d="M190.062 163.079C190.195 161.811 190.255 159.616 191.668 157.074C191.89 160.45 193.568 150.931 193.273 153.001C193.148 153.877 192.743 156.459 192.74 158.924C192.947 158.485 192.984 157.594 193.172 156.863C193.853 167.663 189.929 164.347 190.062 163.079Z" fill="#3CACFE"/>
<g filter="url(#filter0_d_474_383)">
<path d="M78.5029 193.294C76.2191 176.648 81.9819 156.582 90.3594 138.04C93.6974 124.475 101.718 109.599 93.4333 94.686C101.099 100.946 107.724 107.127 108.364 109.987C113.553 114.404 114.556 110.487 116.268 110.412C124.084 104.358 126.548 59.8613 114.178 52.714C110.032 50.0912 132.77 60.3303 140.738 70.5086C157.074 88.2522 159.461 104.112 157.329 99.5696C162.476 92.6522 161.547 83.1895 160.947 73.0939C355.453 222.35 100.647 354.708 78.5029 193.294Z" fill="#000D43"/>
</g>
<g filter="url(#filter1_d_474_383)">
<path d="M90.2677 193.44C88.1108 175.961 93.5534 154.893 101.466 135.423C104.618 121.179 112.193 105.56 104.369 89.9014C111.608 96.4743 117.866 102.965 118.47 105.968C123.371 110.605 124.318 106.492 125.935 106.414C133.317 100.058 135.644 53.3356 123.96 45.8308C120.045 43.077 141.52 53.828 149.046 64.5152C164.474 83.1459 166.729 99.7988 164.715 95.0293C169.576 87.766 168.698 77.8301 168.132 67.2297C351.832 223.948 111.182 362.924 90.2677 193.44Z" fill="#3CACFE"/>
</g>
<g filter="url(#filter2_d_474_383)">
<path d="M116.864 191.483C110.878 144.409 135.281 158.533 117.198 123.673C166.271 153.042 127.483 53.6804 138.917 74.788C143.752 83.7145 156.469 110.308 185.195 132.931C188.998 127.417 180.163 118.975 179.72 110.928C332.565 218.297 133.224 320.15 116.864 191.483Z" fill="#ABFFFE"/>
</g>
<path d="M183.587 181.021C183.587 181.096 183.587 181.171 183.587 181.246L181.643 181.021H183.587Z" fill="#3CACFE"/>
<path d="M183.587 185.518C183.587 190.078 182.37 194.468 180.182 197.8C177.994 201.132 174.999 203.157 171.802 203.465C168.604 203.774 165.444 202.343 162.96 199.462C160.476 196.582 158.853 192.466 158.421 187.947C157.988 183.429 158.777 178.845 160.629 175.124C162.481 171.402 165.257 168.82 168.395 167.9C171.534 166.98 174.801 167.79 177.536 170.167C180.271 172.544 182.269 176.311 183.126 180.705" fill="#000D43"/>
<path d="M212.759 185.743C212.759 189.676 211.73 193.463 209.878 196.336C208.027 199.21 205.492 200.957 202.787 201.223C200.082 201.489 197.408 200.255 195.306 197.77C193.204 195.285 191.831 191.735 191.465 187.838C191.099 183.941 191.766 179.988 193.333 176.778C194.9 173.568 197.249 171.341 199.905 170.547C202.561 169.754 205.325 170.453 207.639 172.503C209.953 174.553 211.644 177.802 212.369 181.591" fill="#000D43"/>
<g filter="url(#filter3_d_474_383)">
<path d="M113.064 43.9256C111.087 42.0057 107.403 38.9862 105.208 33.1045C111.36 37.1962 97.5699 21.581 100.676 24.8537C101.989 26.2377 105.809 30.3845 110.047 33.6629C109.61 32.7134 108.133 31.4638 107.165 30.1615C126.8 43.2946 115.041 45.8455 113.064 43.9256Z" fill="#3CACFE"/>
</g>
<g filter="url(#filter4_d_474_383)">
<path d="M100.317 81.6251C98.3501 78.5898 94.5938 73.7156 93.0234 65.0931C99.4524 71.9014 86.0958 47.6156 89.1438 52.7432C90.4329 54.9117 94.1617 61.3886 98.5154 66.7226C98.1671 65.3163 96.6668 63.3073 95.763 61.3138C116.271 83.1468 102.285 84.6604 100.317 81.6251Z" fill="#000D43"/>
</g>
<defs>
<filter id="filter0_d_474_383" x="71" y="52.298" width="165.663" height="224.79" filterUnits="userSpaceOnUse" color-interpolation-filters="sRGB">
<feFlood flood-opacity="0" result="BackgroundImageFix"/>
<feColorMatrix in="SourceAlpha" type="matrix" values="0 0 0 0 0 0 0 0 0 0 0 0 0 0 0 0 0 0 127 0" result="hardAlpha"/>
<feOffset dx="-2" dy="5"/>
<feGaussianBlur stdDeviation="2.5"/>
<feComposite in2="hardAlpha" operator="out"/>
<feColorMatrix type="matrix" values="0 0 0 0 0 0 0 0 0 0 0 0 0 0 0 0 0 0 0.25 0"/>
<feBlend mode="normal" in2="BackgroundImageFix" result="effect1_dropShadow_474_383"/>
<feBlend mode="normal" in="SourceGraphic" in2="effect1_dropShadow_474_383" result="shape"/>
</filter>
<filter id="filter1_d_474_383" x="85.7927" y="45.394" width="155.015" height="233.53" filterUnits="userSpaceOnUse" color-interpolation-filters="sRGB">
<feFlood flood-opacity="0" result="BackgroundImageFix"/>
<feColorMatrix in="SourceAlpha" type="matrix" values="0 0 0 0 0 0 0 0 0 0 0 0 0 0 0 0 0 0 127 0" result="hardAlpha"/>
<feOffset dy="4"/>
<feGaussianBlur stdDeviation="2"/>
<feComposite in2="hardAlpha" operator="out"/>
<feColorMatrix type="matrix" values="0 0 0 0 0 0 0 0 0 0 0 0 0 0 0 0 0 0 0.25 0"/>
<feBlend mode="normal" in2="BackgroundImageFix" result="effect1_dropShadow_474_383"/>
<feBlend mode="normal" in="SourceGraphic" in2="effect1_dropShadow_474_383" result="shape"/>
</filter>
<filter id="filter2_d_474_383" x="111.894" y="71.8187" width="129.152" height="187.825" filterUnits="userSpaceOnUse" color-interpolation-filters="sRGB">
<feFlood flood-opacity="0" result="BackgroundImageFix"/>
<feColorMatrix in="SourceAlpha" type="matrix" values="0 0 0 0 0 0 0 0 0 0 0 0 0 0 0 0 0 0 127 0" result="hardAlpha"/>
<feOffset dy="4"/>
<feGaussianBlur stdDeviation="2"/>
<feComposite in2="hardAlpha" operator="out"/>
<feColorMatrix type="matrix" values="0 0 0 0 0 0 0 0 0 0 0 0 0 0 0 0 0 0 0.25 0"/>
<feBlend mode="normal" in2="BackgroundImageFix" result="effect1_dropShadow_474_383"/>
<feBlend mode="normal" in="SourceGraphic" in2="effect1_dropShadow_474_383" result="shape"/>
</filter>
<filter id="filter3_d_474_383" x="96.2134" y="24.3992" width="26.1436" height="28.0947" filterUnits="userSpaceOnUse" color-interpolation-filters="sRGB">
<feFlood flood-opacity="0" result="BackgroundImageFix"/>
<feColorMatrix in="SourceAlpha" type="matrix" values="0 0 0 0 0 0 0 0 0 0 0 0 0 0 0 0 0 0 127 0" result="hardAlpha"/>
<feOffset dy="4"/>
<feGaussianBlur stdDeviation="2"/>
<feComposite in2="hardAlpha" operator="out"/>
<feColorMatrix type="matrix" values="0 0 0 0 0 0 0 0 0 0 0 0 0 0 0 0 0 0 0.25 0"/>
<feBlend mode="normal" in2="BackgroundImageFix" result="effect1_dropShadow_474_383"/>
<feBlend mode="normal" in="SourceGraphic" in2="effect1_dropShadow_474_383" result="shape"/>
</filter>
<filter id="filter4_d_474_383" x="84.6843" y="52.0261" width="26.1138" height="38.7806" filterUnits="userSpaceOnUse" color-interpolation-filters="sRGB">
<feFlood flood-opacity="0" result="BackgroundImageFix"/>
<feColorMatrix in="SourceAlpha" type="matrix" values="0 0 0 0 0 0 0 0 0 0 0 0 0 0 0 0 0 0 127 0" result="hardAlpha"/>
<feOffset dy="4"/>
<feGaussianBlur stdDeviation="2"/>
<feComposite in2="hardAlpha" operator="out"/>
<feColorMatrix type="matrix" values="0 0 0 0 0 0 0 0 0 0 0 0 0 0 0 0 0 0 0.25 0"/>
<feBlend mode="normal" in2="BackgroundImageFix" result="effect1_dropShadow_474_383"/>
<feBlend mode="normal" in="SourceGraphic" in2="effect1_dropShadow_474_383" result="shape"/>
</filter>
</defs>
</svg>
